<svg xmlns="http://www.w3.org/2000/svg" width="67" height="61"><defs><linearGradient id="a" x1=".039" y1="-.023" x2=".965" y2=".978" gradientUnits="objectBoundingBox"><stop offset="0" stop-color="#fdfccd"/><stop offset=".499" stop-color="#fcb1d2"/><stop offset="1" stop-color="#f8eef8"/></linearGradient></defs><g transform="translate(-408 -1190)"><rect width="67" height="61" rx="6" transform="translate(408 1190)" style="fill:url(#a)"/><path d="M57 53H4a4.005 4.005 0 0 1-4-4V31.575a4.52 4.52 0 0 0 4.519-4.511A4.52 4.52 0 0 0 0 22.553V4a4 4 0 0 1 4-4h53a4 4 0 0 1 4 4v18.553a4.511 4.511 0 1 0 0 9.022V49a4.005 4.005 0 0 1-4 4Z" transform="translate(411 1195)" style="fill:#fff"/><path d="M0 0h61v16a4 4 0 0 1-4 4H4a4 4 0 0 1-4-4V0Z" transform="translate(411 1228)" style="fill:#f95594"/></g></svg>