<svg xmlns="http://www.w3.org/2000/svg" xmlns:xlink="http://www.w3.org/1999/xlink" width="115" height="101" viewBox="0 0 115 101"><defs><style>.a{fill:#ffc9c7;}.b{fill:#fff;}.c,.d{stroke:none;}.d{fill:#f95594;}.e{filter:url(#a);}</style><filter id="a" x="0" y="0" width="115" height="101" filterUnits="userSpaceOnUse"><feOffset dy="3" input="SourceAlpha"/><feGaussianBlur stdDeviation="3" result="b"/><feFlood flood-opacity="0.161"/><feComposite operator="in" in2="b"/><feComposite in="SourceGraphic"/></filter></defs><g transform="translate(-27 -166)"><g class="e" transform="matrix(1, 0, 0, 1, 27, 166)"><g class="a" transform="translate(11 8)"><path class="c" d="M 86.19513702392578 80 L 6.804874897003174 80 C 2.501250028610229 80 -1 76.51374816894531 -1 72.22857666015625 L -1 6.771424770355225 C -1 2.486249923706055 2.501250028610229 -1 6.804874897003174 -1 L 86.19513702392578 -1 C 90.49874877929688 -1 94 2.486249923706055 94 6.771424770355225 L 94 72.22857666015625 C 94 76.51374816894531 90.49874877929688 80 86.19513702392578 80 Z"/><path class="d" d="M 6.804878234863281 0 C 3.046638488769531 0 0 3.031669616699219 0 6.77142333984375 L 0 72.22857666015625 C 0 75.96833038330078 3.046638488769531 79 6.804878234863281 79 L 86.19512939453125 79 C 89.95336151123047 79 93 75.96833038330078 93 72.22857666015625 L 93 6.77142333984375 C 93 3.031669616699219 89.95336151123047 0 86.19512939453125 0 L 6.804878234863281 0 M 6.804878234863281 -2 L 86.19512939453125 -2 C 91.05014801025391 -2 95 1.934837341308594 95 6.77142333984375 L 95 72.22857666015625 C 95 77.06516265869141 91.05014801025391 81 86.19512939453125 81 L 6.804878234863281 81 C 1.949851989746094 81 -2 77.06516265869141 -2 72.22857666015625 L -2 6.77142333984375 C -2 1.934837341308594 1.949851989746094 -2 6.804878234863281 -2 Z"/></g></g><rect class="b" width="93" height="71" rx="6" transform="translate(38 174)"/></g></svg>