<svg xmlns="http://www.w3.org/2000/svg" xmlns:xlink="http://www.w3.org/1999/xlink" width="344" height="342" viewBox="0 0 344 342"><defs><style>.a{fill:#ffa387;}.b{fill:#d41c2e;}.c{fill:#fff;}.d{fill:#faf61a;}.e{filter:url(#cq);}.f{filter:url(#co);}.g{filter:url(#cm);}.h{filter:url(#ck);}.i{filter:url(#ci);}.j{filter:url(#cg);}.k{filter:url(#ce);}.l{filter:url(#cc);}.m{filter:url(#ca);}.n{filter:url(#by);}.o{filter:url(#bw);}.p{filter:url(#bu);}.q{filter:url(#bs);}.r{filter:url(#bq);}.s{filter:url(#bo);}.t{filter:url(#bm);}.u{filter:url(#bk);}.v{filter:url(#bi);}.w{filter:url(#bg);}.x{filter:url(#be);}.y{filter:url(#bc);}.z{filter:url(#ba);}.aa{filter:url(#ay);}.ab{filter:url(#aw);}.ac{filter:url(#au);}.ad{filter:url(#as);}.ae{filter:url(#aq);}.af{filter:url(#ao);}.ag{filter:url(#am);}.ah{filter:url(#ak);}.ai{filter:url(#ai);}.aj{filter:url(#ag);}.ak{filter:url(#ae);}.al{filter:url(#ac);}.am{filter:url(#aa);}.an{filter:url(#y);}.ao{filter:url(#w);}.ap{filter:url(#u);}.aq{filter:url(#s);}.ar{filter:url(#q);}.as{filter:url(#o);}.at{filter:url(#m);}.au{filter:url(#k);}.av{filter:url(#i);}.aw{filter:url(#g);}.ax{filter:url(#e);}.ay{filter:url(#c);}.az{filter:url(#a);}</style><filter id="a" x="17" y="1" width="12" height="12" filterUnits="userSpaceOnUse"><feOffset input="SourceAlpha"/><feGaussianBlur stdDeviation="1" result="b"/><feFlood flood-color="#800" flood-opacity="0.702"/><feComposite operator="in" in2="b"/><feComposite in="SourceGraphic"/></filter><filter id="c" x="43" y="1" width="12" height="12" filterUnits="userSpaceOnUse"><feOffset input="SourceAlpha"/><feGaussianBlur stdDeviation="1" result="d"/><feFlood flood-color="#800" flood-opacity="0.702"/><feComposite operator="in" in2="d"/><feComposite in="SourceGraphic"/></filter><filter id="e" x="71" y="1" width="12" height="12" filterUnits="userSpaceOnUse"><feOffset input="SourceAlpha"/><feGaussianBlur stdDeviation="1" result="f"/><feFlood flood-color="#800" flood-opacity="0.702"/><feComposite operator="in" in2="f"/><feComposite in="SourceGraphic"/></filter><filter id="g" x="97" y="1" width="12" height="12" filterUnits="userSpaceOnUse"><feOffset input="SourceAlpha"/><feGaussianBlur stdDeviation="1" result="h"/><feFlood flood-color="#800" flood-opacity="0.702"/><feComposite operator="in" in2="h"/><feComposite in="SourceGraphic"/></filter><filter id="i" x="125" y="1" width="12" height="12" filterUnits="userSpaceOnUse"><feOffset input="SourceAlpha"/><feGaussianBlur stdDeviation="1" result="j"/><feFlood flood-color="#800" flood-opacity="0.702"/><feComposite operator="in" in2="j"/><feComposite in="SourceGraphic"/></filter><filter id="k" x="151" y="1" width="12" height="12" filterUnits="userSpaceOnUse"><feOffset input="SourceAlpha"/><feGaussianBlur stdDeviation="1" result="l"/><feFlood flood-color="#800" flood-opacity="0.702"/><feComposite operator="in" in2="l"/><feComposite in="SourceGraphic"/></filter><filter id="m" x="179" y="1" width="12" height="12" filterUnits="userSpaceOnUse"><feOffset input="SourceAlpha"/><feGaussianBlur stdDeviation="1" result="n"/><feFlood flood-color="#800" flood-opacity="0.702"/><feComposite operator="in" in2="n"/><feComposite in="SourceGraphic"/></filter><filter id="o" x="205" y="1" width="12" height="12" filterUnits="userSpaceOnUse"><feOffset input="SourceAlpha"/><feGaussianBlur stdDeviation="1" result="p"/><feFlood flood-color="#800" flood-opacity="0.702"/><feComposite operator="in" in2="p"/><feComposite in="SourceGraphic"/></filter><filter id="q" x="233" y="1" width="12" height="12" filterUnits="userSpaceOnUse"><feOffset input="SourceAlpha"/><feGaussianBlur stdDeviation="1" result="r"/><feFlood flood-color="#800" flood-opacity="0.702"/><feComposite operator="in" in2="r"/><feComposite in="SourceGraphic"/></filter><filter id="s" x="259" y="1" width="12" height="12" filterUnits="userSpaceOnUse"><feOffset input="SourceAlpha"/><feGaussianBlur stdDeviation="1" result="t"/><feFlood flood-color="#800" flood-opacity="0.702"/><feComposite operator="in" in2="t"/><feComposite in="SourceGraphic"/></filter><filter id="u" x="287" y="1" width="12" height="12" filterUnits="userSpaceOnUse"><feOffset input="SourceAlpha"/><feGaussianBlur stdDeviation="1" result="v"/><feFlood flood-color="#800" flood-opacity="0.702"/><feComposite operator="in" in2="v"/><feComposite in="SourceGraphic"/></filter><filter id="w" x="313" y="1" width="12" height="12" filterUnits="userSpaceOnUse"><feOffset input="SourceAlpha"/><feGaussianBlur stdDeviation="1" result="x"/><feFlood flood-color="#800" flood-opacity="0.702"/><feComposite operator="in" in2="x"/><feComposite in="SourceGraphic"/></filter><filter id="y" x="17" y="328" width="12" height="12" filterUnits="userSpaceOnUse"><feOffset input="SourceAlpha"/><feGaussianBlur stdDeviation="1" result="z"/><feFlood flood-color="#800" flood-opacity="0.702"/><feComposite operator="in" in2="z"/><feComposite in="SourceGraphic"/></filter><filter id="aa" x="43" y="328" width="12" height="12" filterUnits="userSpaceOnUse"><feOffset input="SourceAlpha"/><feGaussianBlur stdDeviation="1" result="ab"/><feFlood flood-color="#800" flood-opacity="0.702"/><feComposite operator="in" in2="ab"/><feComposite in="SourceGraphic"/></filter><filter id="ac" x="71" y="328" width="12" height="12" filterUnits="userSpaceOnUse"><feOffset input="SourceAlpha"/><feGaussianBlur stdDeviation="1" result="ad"/><feFlood flood-color="#800" flood-opacity="0.702"/><feComposite operator="in" in2="ad"/><feComposite in="SourceGraphic"/></filter><filter id="ae" x="97" y="328" width="12" height="12" filterUnits="userSpaceOnUse"><feOffset input="SourceAlpha"/><feGaussianBlur stdDeviation="1" result="af"/><feFlood flood-color="#800" flood-opacity="0.702"/><feComposite operator="in" in2="af"/><feComposite in="SourceGraphic"/></filter><filter id="ag" x="125" y="328" width="12" height="12" filterUnits="userSpaceOnUse"><feOffset input="SourceAlpha"/><feGaussianBlur stdDeviation="1" result="ah"/><feFlood flood-color="#800" flood-opacity="0.702"/><feComposite operator="in" in2="ah"/><feComposite in="SourceGraphic"/></filter><filter id="ai" x="151" y="328" width="12" height="12" filterUnits="userSpaceOnUse"><feOffset input="SourceAlpha"/><feGaussianBlur stdDeviation="1" result="aj"/><feFlood flood-color="#800" flood-opacity="0.702"/><feComposite operator="in" in2="aj"/><feComposite in="SourceGraphic"/></filter><filter id="ak" x="179" y="328" width="12" height="12" filterUnits="userSpaceOnUse"><feOffset input="SourceAlpha"/><feGaussianBlur stdDeviation="1" result="al"/><feFlood flood-color="#800" flood-opacity="0.702"/><feComposite operator="in" in2="al"/><feComposite in="SourceGraphic"/></filter><filter id="am" x="205" y="328" width="12" height="12" filterUnits="userSpaceOnUse"><feOffset input="SourceAlpha"/><feGaussianBlur stdDeviation="1" result="an"/><feFlood flood-color="#800" flood-opacity="0.702"/><feComposite operator="in" in2="an"/><feComposite in="SourceGraphic"/></filter><filter id="ao" x="233" y="328" width="12" height="12" filterUnits="userSpaceOnUse"><feOffset input="SourceAlpha"/><feGaussianBlur stdDeviation="1" result="ap"/><feFlood flood-color="#800" flood-opacity="0.702"/><feComposite operator="in" in2="ap"/><feComposite in="SourceGraphic"/></filter><filter id="aq" x="259" y="328" width="12" height="12" filterUnits="userSpaceOnUse"><feOffset input="SourceAlpha"/><feGaussianBlur stdDeviation="1" result="ar"/><feFlood flood-color="#800" flood-opacity="0.702"/><feComposite operator="in" in2="ar"/><feComposite in="SourceGraphic"/></filter><filter id="as" x="287" y="328" width="12" height="12" filterUnits="userSpaceOnUse"><feOffset input="SourceAlpha"/><feGaussianBlur stdDeviation="1" result="at"/><feFlood flood-color="#800" flood-opacity="0.702"/><feComposite operator="in" in2="at"/><feComposite in="SourceGraphic"/></filter><filter id="au" x="313" y="328" width="12" height="12" filterUnits="userSpaceOnUse"><feOffset input="SourceAlpha"/><feGaussianBlur stdDeviation="1" result="av"/><feFlood flood-color="#800" flood-opacity="0.702"/><feComposite operator="in" in2="av"/><feComposite in="SourceGraphic"/></filter><filter id="aw" x="1" y="16" width="12" height="12" filterUnits="userSpaceOnUse"><feOffset input="SourceAlpha"/><feGaussianBlur stdDeviation="1" result="ax"/><feFlood flood-color="#800" flood-opacity="0.702"/><feComposite operator="in" in2="ax"/><feComposite in="SourceGraphic"/></filter><filter id="ay" x="1" y="42" width="12" height="12" filterUnits="userSpaceOnUse"><feOffset input="SourceAlpha"/><feGaussianBlur stdDeviation="1" result="az"/><feFlood flood-color="#800" flood-opacity="0.702"/><feComposite operator="in" in2="az"/><feComposite in="SourceGraphic"/></filter><filter id="ba" x="1" y="70" width="12" height="12" filterUnits="userSpaceOnUse"><feOffset input="SourceAlpha"/><feGaussianBlur stdDeviation="1" result="bb"/><feFlood flood-color="#800" flood-opacity="0.702"/><feComposite operator="in" in2="bb"/><feComposite in="SourceGraphic"/></filter><filter id="bc" x="1" y="96" width="12" height="12" filterUnits="userSpaceOnUse"><feOffset input="SourceAlpha"/><feGaussianBlur stdDeviation="1" result="bd"/><feFlood flood-color="#800" flood-opacity="0.702"/><feComposite operator="in" in2="bd"/><feComposite in="SourceGraphic"/></filter><filter id="be" x="1" y="124" width="12" height="12" filterUnits="userSpaceOnUse"><feOffset input="SourceAlpha"/><feGaussianBlur stdDeviation="1" result="bf"/><feFlood flood-color="#800" flood-opacity="0.702"/><feComposite operator="in" in2="bf"/><feComposite in="SourceGraphic"/></filter><filter id="bg" x="1" y="150" width="12" height="12" filterUnits="userSpaceOnUse"><feOffset input="SourceAlpha"/><feGaussianBlur stdDeviation="1" result="bh"/><feFlood flood-color="#800" flood-opacity="0.702"/><feComposite operator="in" in2="bh"/><feComposite in="SourceGraphic"/></filter><filter id="bi" x="1" y="178" width="12" height="12" filterUnits="userSpaceOnUse"><feOffset input="SourceAlpha"/><feGaussianBlur stdDeviation="1" result="bj"/><feFlood flood-color="#800" flood-opacity="0.702"/><feComposite operator="in" in2="bj"/><feComposite in="SourceGraphic"/></filter><filter id="bk" x="1" y="204" width="12" height="12" filterUnits="userSpaceOnUse"><feOffset input="SourceAlpha"/><feGaussianBlur stdDeviation="1" result="bl"/><feFlood flood-color="#800" flood-opacity="0.702"/><feComposite operator="in" in2="bl"/><feComposite in="SourceGraphic"/></filter><filter id="bm" x="1" y="232" width="12" height="12" filterUnits="userSpaceOnUse"><feOffset input="SourceAlpha"/><feGaussianBlur stdDeviation="1" result="bn"/><feFlood flood-color="#800" flood-opacity="0.702"/><feComposite operator="in" in2="bn"/><feComposite in="SourceGraphic"/></filter><filter id="bo" x="1" y="258" width="12" height="12" filterUnits="userSpaceOnUse"><feOffset input="SourceAlpha"/><feGaussianBlur stdDeviation="1" result="bp"/><feFlood flood-color="#800" flood-opacity="0.702"/><feComposite operator="in" in2="bp"/><feComposite in="SourceGraphic"/></filter><filter id="bq" x="1" y="286" width="12" height="12" filterUnits="userSpaceOnUse"><feOffset input="SourceAlpha"/><feGaussianBlur stdDeviation="1" result="br"/><feFlood flood-color="#800" flood-opacity="0.702"/><feComposite operator="in" in2="br"/><feComposite in="SourceGraphic"/></filter><filter id="bs" x="1" y="312" width="12" height="12" filterUnits="userSpaceOnUse"><feOffset input="SourceAlpha"/><feGaussianBlur stdDeviation="1" result="bt"/><feFlood flood-color="#800" flood-opacity="0.702"/><feComposite operator="in" in2="bt"/><feComposite in="SourceGraphic"/></filter><filter id="bu" x="330" y="16" width="12" height="12" filterUnits="userSpaceOnUse"><feOffset input="SourceAlpha"/><feGaussianBlur stdDeviation="1" result="bv"/><feFlood flood-color="#800" flood-opacity="0.702"/><feComposite operator="in" in2="bv"/><feComposite in="SourceGraphic"/></filter><filter id="bw" x="330" y="42" width="12" height="12" filterUnits="userSpaceOnUse"><feOffset input="SourceAlpha"/><feGaussianBlur stdDeviation="1" result="bx"/><feFlood flood-color="#800" flood-opacity="0.702"/><feComposite operator="in" in2="bx"/><feComposite in="SourceGraphic"/></filter><filter id="by" x="330" y="70" width="12" height="12" filterUnits="userSpaceOnUse"><feOffset input="SourceAlpha"/><feGaussianBlur stdDeviation="1" result="bz"/><feFlood flood-color="#800" flood-opacity="0.702"/><feComposite operator="in" in2="bz"/><feComposite in="SourceGraphic"/></filter><filter id="ca" x="330" y="96" width="12" height="12" filterUnits="userSpaceOnUse"><feOffset input="SourceAlpha"/><feGaussianBlur stdDeviation="1" result="cb"/><feFlood flood-color="#800" flood-opacity="0.702"/><feComposite operator="in" in2="cb"/><feComposite in="SourceGraphic"/></filter><filter id="cc" x="330" y="124" width="12" height="12" filterUnits="userSpaceOnUse"><feOffset input="SourceAlpha"/><feGaussianBlur stdDeviation="1" result="cd"/><feFlood flood-color="#800" flood-opacity="0.702"/><feComposite operator="in" in2="cd"/><feComposite in="SourceGraphic"/></filter><filter id="ce" x="330" y="150" width="12" height="12" filterUnits="userSpaceOnUse"><feOffset input="SourceAlpha"/><feGaussianBlur stdDeviation="1" result="cf"/><feFlood flood-color="#800" flood-opacity="0.702"/><feComposite operator="in" in2="cf"/><feComposite in="SourceGraphic"/></filter><filter id="cg" x="330" y="178" width="12" height="12" filterUnits="userSpaceOnUse"><feOffset input="SourceAlpha"/><feGaussianBlur stdDeviation="1" result="ch"/><feFlood flood-color="#800" flood-opacity="0.702"/><feComposite operator="in" in2="ch"/><feComposite in="SourceGraphic"/></filter><filter id="ci" x="330" y="204" width="12" height="12" filterUnits="userSpaceOnUse"><feOffset input="SourceAlpha"/><feGaussianBlur stdDeviation="1" result="cj"/><feFlood flood-color="#800" flood-opacity="0.702"/><feComposite operator="in" in2="cj"/><feComposite in="SourceGraphic"/></filter><filter id="ck" x="330" y="232" width="12" height="12" filterUnits="userSpaceOnUse"><feOffset input="SourceAlpha"/><feGaussianBlur stdDeviation="1" result="cl"/><feFlood flood-color="#800" flood-opacity="0.702"/><feComposite operator="in" in2="cl"/><feComposite in="SourceGraphic"/></filter><filter id="cm" x="330" y="258" width="12" height="12" filterUnits="userSpaceOnUse"><feOffset input="SourceAlpha"/><feGaussianBlur stdDeviation="1" result="cn"/><feFlood flood-color="#800" flood-opacity="0.702"/><feComposite operator="in" in2="cn"/><feComposite in="SourceGraphic"/></filter><filter id="co" x="330" y="286" width="12" height="12" filterUnits="userSpaceOnUse"><feOffset input="SourceAlpha"/><feGaussianBlur stdDeviation="1" result="cp"/><feFlood flood-color="#800" flood-opacity="0.702"/><feComposite operator="in" in2="cp"/><feComposite in="SourceGraphic"/></filter><filter id="cq" x="330" y="312" width="12" height="12" filterUnits="userSpaceOnUse"><feOffset input="SourceAlpha"/><feGaussianBlur stdDeviation="1" result="cr"/><feFlood flood-color="#800" flood-opacity="0.702"/><feComposite operator="in" in2="cr"/><feComposite in="SourceGraphic"/></filter></defs><g transform="translate(307 -3099)"><rect class="a" width="344" height="342" rx="16" transform="translate(-307 3099)"/><path class="b" d="M12,0H302a12,12,0,0,1,12,12V300a12,12,0,0,1-12,12H12A12,12,0,0,1,0,300V12A12,12,0,0,1,12,0Z" transform="translate(-293 3113)"/><g class="az" transform="matrix(1, 0, 0, 1, -307, 3099)"><circle class="c" cx="3" cy="3" r="3" transform="translate(20 4)"/></g><g class="ay" transform="matrix(1, 0, 0, 1, -307, 3099)"><circle class="d" cx="3" cy="3" r="3" transform="translate(46 4)"/></g><g class="ax" transform="matrix(1, 0, 0, 1, -307, 3099)"><circle class="c" cx="3" cy="3" r="3" transform="translate(74 4)"/></g><g class="aw" transform="matrix(1, 0, 0, 1, -307, 3099)"><circle class="d" cx="3" cy="3" r="3" transform="translate(100 4)"/></g><g class="av" transform="matrix(1, 0, 0, 1, -307, 3099)"><circle class="c" cx="3" cy="3" r="3" transform="translate(128 4)"/></g><g class="au" transform="matrix(1, 0, 0, 1, -307, 3099)"><circle class="d" cx="3" cy="3" r="3" transform="translate(154 4)"/></g><g class="at" transform="matrix(1, 0, 0, 1, -307, 3099)"><circle class="c" cx="3" cy="3" r="3" transform="translate(182 4)"/></g><g class="as" transform="matrix(1, 0, 0, 1, -307, 3099)"><circle class="d" cx="3" cy="3" r="3" transform="translate(208 4)"/></g><g class="ar" transform="matrix(1, 0, 0, 1, -307, 3099)"><circle class="c" cx="3" cy="3" r="3" transform="translate(236 4)"/></g><g class="aq" transform="matrix(1, 0, 0, 1, -307, 3099)"><circle class="d" cx="3" cy="3" r="3" transform="translate(262 4)"/></g><g class="ap" transform="matrix(1, 0, 0, 1, -307, 3099)"><circle class="c" cx="3" cy="3" r="3" transform="translate(290 4)"/></g><g class="ao" transform="matrix(1, 0, 0, 1, -307, 3099)"><circle class="d" cx="3" cy="3" r="3" transform="translate(316 4)"/></g><g class="an" transform="matrix(1, 0, 0, 1, -307, 3099)"><circle class="c" cx="3" cy="3" r="3" transform="translate(20 331)"/></g><g class="am" transform="matrix(1, 0, 0, 1, -307, 3099)"><circle class="d" cx="3" cy="3" r="3" transform="translate(46 331)"/></g><g class="al" transform="matrix(1, 0, 0, 1, -307, 3099)"><circle class="c" cx="3" cy="3" r="3" transform="translate(74 331)"/></g><g class="ak" transform="matrix(1, 0, 0, 1, -307, 3099)"><circle class="d" cx="3" cy="3" r="3" transform="translate(100 331)"/></g><g class="aj" transform="matrix(1, 0, 0, 1, -307, 3099)"><circle class="c" cx="3" cy="3" r="3" transform="translate(128 331)"/></g><g class="ai" transform="matrix(1, 0, 0, 1, -307, 3099)"><circle class="d" cx="3" cy="3" r="3" transform="translate(154 331)"/></g><g class="ah" transform="matrix(1, 0, 0, 1, -307, 3099)"><circle class="c" cx="3" cy="3" r="3" transform="translate(182 331)"/></g><g class="ag" transform="matrix(1, 0, 0, 1, -307, 3099)"><circle class="d" cx="3" cy="3" r="3" transform="translate(208 331)"/></g><g class="af" transform="matrix(1, 0, 0, 1, -307, 3099)"><circle class="c" cx="3" cy="3" r="3" transform="translate(236 331)"/></g><g class="ae" transform="matrix(1, 0, 0, 1, -307, 3099)"><circle class="d" cx="3" cy="3" r="3" transform="translate(262 331)"/></g><g class="ad" transform="matrix(1, 0, 0, 1, -307, 3099)"><circle class="c" cx="3" cy="3" r="3" transform="translate(290 331)"/></g><g class="ac" transform="matrix(1, 0, 0, 1, -307, 3099)"><circle class="d" cx="3" cy="3" r="3" transform="translate(316 331)"/></g><g class="ab" transform="matrix(1, 0, 0, 1, -307, 3099)"><circle class="c" cx="3" cy="3" r="3" transform="translate(10 19) rotate(90)"/></g><g class="aa" transform="matrix(1, 0, 0, 1, -307, 3099)"><circle class="d" cx="3" cy="3" r="3" transform="translate(10 45) rotate(90)"/></g><g class="z" transform="matrix(1, 0, 0, 1, -307, 3099)"><circle class="c" cx="3" cy="3" r="3" transform="translate(10 73) rotate(90)"/></g><g class="y" transform="matrix(1, 0, 0, 1, -307, 3099)"><circle class="d" cx="3" cy="3" r="3" transform="translate(10 99) rotate(90)"/></g><g class="x" transform="matrix(1, 0, 0, 1, -307, 3099)"><circle class="c" cx="3" cy="3" r="3" transform="translate(10 127) rotate(90)"/></g><g class="w" transform="matrix(1, 0, 0, 1, -307, 3099)"><circle class="d" cx="3" cy="3" r="3" transform="translate(10 153) rotate(90)"/></g><g class="v" transform="matrix(1, 0, 0, 1, -307, 3099)"><circle class="c" cx="3" cy="3" r="3" transform="translate(10 181) rotate(90)"/></g><g class="u" transform="matrix(1, 0, 0, 1, -307, 3099)"><circle class="d" cx="3" cy="3" r="3" transform="translate(10 207) rotate(90)"/></g><g class="t" transform="matrix(1, 0, 0, 1, -307, 3099)"><circle class="c" cx="3" cy="3" r="3" transform="translate(10 235) rotate(90)"/></g><g class="s" transform="matrix(1, 0, 0, 1, -307, 3099)"><circle class="d" cx="3" cy="3" r="3" transform="translate(10 261) rotate(90)"/></g><g class="r" transform="matrix(1, 0, 0, 1, -307, 3099)"><circle class="c" cx="3" cy="3" r="3" transform="translate(10 289) rotate(90)"/></g><g class="q" transform="matrix(1, 0, 0, 1, -307, 3099)"><circle class="d" cx="3" cy="3" r="3" transform="translate(10 315) rotate(90)"/></g><g class="p" transform="matrix(1, 0, 0, 1, -307, 3099)"><circle class="c" cx="3" cy="3" r="3" transform="translate(339 19) rotate(90)"/></g><g class="o" transform="matrix(1, 0, 0, 1, -307, 3099)"><circle class="d" cx="3" cy="3" r="3" transform="translate(339 45) rotate(90)"/></g><g class="n" transform="matrix(1, 0, 0, 1, -307, 3099)"><circle class="c" cx="3" cy="3" r="3" transform="translate(339 73) rotate(90)"/></g><g class="m" transform="matrix(1, 0, 0, 1, -307, 3099)"><circle class="d" cx="3" cy="3" r="3" transform="translate(339 99) rotate(90)"/></g><g class="l" transform="matrix(1, 0, 0, 1, -307, 3099)"><circle class="c" cx="3" cy="3" r="3" transform="translate(339 127) rotate(90)"/></g><g class="k" transform="matrix(1, 0, 0, 1, -307, 3099)"><circle class="d" cx="3" cy="3" r="3" transform="translate(339 153) rotate(90)"/></g><g class="j" transform="matrix(1, 0, 0, 1, -307, 3099)"><circle class="c" cx="3" cy="3" r="3" transform="translate(339 181) rotate(90)"/></g><g class="i" transform="matrix(1, 0, 0, 1, -307, 3099)"><circle class="d" cx="3" cy="3" r="3" transform="translate(339 207) rotate(90)"/></g><g class="h" transform="matrix(1, 0, 0, 1, -307, 3099)"><circle class="c" cx="3" cy="3" r="3" transform="translate(339 235) rotate(90)"/></g><g class="g" transform="matrix(1, 0, 0, 1, -307, 3099)"><circle class="d" cx="3" cy="3" r="3" transform="translate(339 261) rotate(90)"/></g><g class="f" transform="matrix(1, 0, 0, 1, -307, 3099)"><circle class="c" cx="3" cy="3" r="3" transform="translate(339 289) rotate(90)"/></g><g class="e" transform="matrix(1, 0, 0, 1, -307, 3099)"><circle class="d" cx="3" cy="3" r="3" transform="translate(339 315) rotate(90)"/></g></g></svg>